<svg width="116" height="90" viewBox="0 0 116 90" fill="none" xmlns="http://www.w3.org/2000/svg">
<path d="M53.9337 58.0063H38.6538C38.1583 58.0063 37.7453 58.416 37.7453 58.9075V74.0646C37.7453 74.5562 38.1583 74.9658 38.6538 74.9658H53.9337C54.4293 74.9658 54.8423 74.5562 54.8423 74.0646V58.9075C54.8423 58.416 54.4293 58.0063 53.9337 58.0063ZM53.0252 73.1633H39.5624V59.8088H53.0252V73.1633Z" fill="black"/>
<path d="M79.1664 58.0063H63.8865C63.3909 58.0063 62.9779 58.416 62.9779 58.9075V74.0646C62.9779 74.5562 63.3909 74.9658 63.8865 74.9658H79.1664C79.6619 74.9658 80.0749 74.5562 80.0749 74.0646V58.9075C80.0749 58.416 79.6619 58.0063 79.1664 58.0063ZM78.2578 73.1633H64.795V59.8088H78.2578V73.1633Z" fill="black"/>
<path d="M89.1192 74.9658H104.399C104.895 74.9658 105.308 74.5562 105.308 74.0646V58.9075C105.308 58.416 104.895 58.0063 104.399 58.0063H89.1192C88.6236 58.0063 88.2107 58.416 88.2107 58.9075V74.0646C88.1694 74.5562 88.5823 74.9658 89.1192 74.9658ZM90.0277 59.8088H103.491V73.1633H90.0277V59.8088Z" fill="black"/>
<path d="M28.7426 58.0063H13.4627C12.9671 58.0063 12.5541 58.416 12.5541 58.9075V74.0646C12.5541 74.5562 12.9671 74.9658 13.4627 74.9658H28.7426C29.2382 74.9658 29.6511 74.5562 29.6511 74.0646V58.9075C29.6511 58.416 29.2382 58.0063 28.7426 58.0063ZM27.8341 73.1633H14.3712V59.8088H27.8341V73.1633Z" fill="black"/>
<path d="M32.8722 32.3623C33.12 32.3623 33.3678 32.2803 33.533 32.1165C33.6982 31.9526 33.7808 31.7068 33.7808 31.461C33.7808 31.2152 33.6982 30.9695 33.533 30.8056C33.3678 30.6417 33.12 30.5598 32.8722 30.5598C32.6245 30.5598 32.3767 30.6417 32.2115 30.8056C32.0463 30.9695 31.9637 31.2152 31.9637 31.461C31.9637 31.7068 32.0463 31.9526 32.2115 32.1165C32.3767 32.2394 32.6245 32.3623 32.8722 32.3623Z" fill="black"/>
<path d="M95.4787 23.5958C95.3135 23.432 95.0658 23.35 94.818 23.35C94.6941 23.35 94.5702 23.391 94.4876 23.432C94.1572 23.5548 93.9094 23.8826 93.9094 24.2513V41.8662L75.491 23.5958C75.3258 23.432 75.078 23.35 74.8302 23.35C74.7063 23.35 74.5824 23.391 74.4998 23.432C74.1695 23.5548 73.9217 23.8826 73.9217 24.2513V41.8662L55.5032 23.5958C55.338 23.432 55.0902 23.35 54.8425 23.35C54.7186 23.35 54.5947 23.391 54.5121 23.432C54.1817 23.5548 53.9339 23.8826 53.9339 24.2513V43.1771H48.5653V1.80246H50.6715C51.167 1.80246 51.58 1.39281 51.58 0.901229C51.58 0.40965 51.167 0 50.6715 0H29.8578C29.3622 0 28.9492 0.40965 28.9492 0.901229C28.9492 1.39281 29.3622 1.80246 29.8578 1.80246H31.9639V23.5548C31.9639 24.0464 32.3769 24.4561 32.8724 24.4561C33.368 24.4561 33.781 24.0464 33.781 23.5548V1.80246H46.7895V43.1771H33.781V39.4902C33.781 38.9986 33.368 38.589 32.8724 38.589C32.3769 38.589 31.9639 38.9986 31.9639 39.4902V43.1771H21.97V1.80246H24.0762C24.5717 1.80246 24.9847 1.39281 24.9847 0.901229C24.9847 0.40965 24.5717 0 24.0762 0H3.22117C2.7256 0 2.31263 0.40965 2.31263 0.901229C2.31263 1.39281 2.7256 1.80246 3.22117 1.80246H5.32732V43.1771H0.908535C0.41297 43.1771 0 43.5867 0 44.0783V89.0988C0 89.5903 0.41297 90 0.908535 90H114.806C115.301 90 115.714 89.5903 115.714 89.0988V44.0373C115.714 43.7915 115.632 43.5867 115.466 43.3819L95.4787 23.5958ZM7.14439 1.80246H20.153V43.1771H7.14439V1.80246ZM113.897 88.1566H1.81707V44.9386H54.8425C55.338 44.9386 55.751 44.5289 55.751 44.0373V26.4224L74.1695 44.6928C74.3347 44.8566 74.5824 44.9386 74.8302 44.9386C74.9541 44.9386 75.078 44.8976 75.1606 44.8566C75.491 44.7337 75.7388 44.406 75.7388 44.0373V26.4224L94.1572 44.6928C94.3224 44.8566 94.5702 44.9386 94.818 44.9386C94.9419 44.9386 95.0658 44.8976 95.1484 44.8566C95.4787 44.7337 95.7265 44.406 95.7265 44.0373V26.4224L113.897 44.447V88.1566Z" fill="black"/>
</svg>
