<svg width="15" height="15" viewBox="0 0 15 15" fill="none" xmlns="http://www.w3.org/2000/svg">
<path d="M12.7969 2.20312C11.4375 0.84375 9.57187 0 7.5 0C5.51088 0 3.60322 0.790176 2.1967 2.1967C0.790176 3.60322 0 5.51088 0 7.5C0 9.48912 0.790176 11.3968 2.1967 12.8033C3.60322 14.2098 5.51088 15 7.5 15C10.9969 15 13.9125 12.6094 14.7469 9.375H12.7969C12.0281 11.5594 9.94687 13.125 7.5 13.125C6.00816 13.125 4.57742 12.5324 3.52252 11.4775C2.46763 10.4226 1.875 8.99184 1.875 7.5C1.875 6.00816 2.46763 4.57742 3.52252 3.52252C4.57742 2.46763 6.00816 1.875 7.5 1.875C9.05625 1.875 10.4437 2.52188 11.4562 3.54375L8.4375 6.5625H15V0L12.7969 2.20312Z" fill="#E77E83"/>
</svg>
