<svg width="21" height="20" viewBox="0 0 21 20" fill="none" xmlns="http://www.w3.org/2000/svg">
<path d="M13.5 0C16 0 18 2 18 4.5C18 5.38 17.75 6.21 17.31 6.9L20.39 10L19 11.39L15.88 8.32C15.19 8.75 14.37 9 13.5 9C11 9 9 7 9 4.5C9 2 11 0 13.5 0ZM13.5 2C12.837 2 12.2011 2.26339 11.7322 2.73223C11.2634 3.20107 11 3.83696 11 4.5C11 5.16304 11.2634 5.79893 11.7322 6.26777C12.2011 6.73661 12.837 7 13.5 7C14.163 7 14.7989 6.73661 15.2678 6.26777C15.7366 5.79893 16 5.16304 16 4.5C16 3.83696 15.7366 3.20107 15.2678 2.73223C14.7989 2.26339 14.163 2 13.5 2ZM5.5 12.5L2 17H16L11.5 11L8 15.5L5.5 12.5ZM18 18C18 18.5304 17.7893 19.0391 17.4142 19.4142C17.0391 19.7893 16.5304 20 16 20H2C1.46957 20 0.960859 19.7893 0.585786 19.4142C0.210714 19.0391 0 18.5304 0 18V4C0 3.46957 0.210714 2.96086 0.585786 2.58579C0.960859 2.21071 1.46957 2 2 2H7.5C7.18 2.77 7 3.61 7 4.5C7 6.22391 7.68482 7.87721 8.90381 9.09619C10.1228 10.3152 11.7761 11 13.5 11C14.18 11 14.84 10.89 15.46 10.7L18 13.24V18Z" fill="#E77E83"/>
</svg>
