<svg width="94" height="94" viewBox="0 0 94 94" fill="none" xmlns="http://www.w3.org/2000/svg">
<path d="M66.3762 34.964L47.8682 11.1286C47.6709 10.8918 47.3946 10.7734 47.1184 10.7734C46.8027 10.7734 46.5265 10.8918 46.3686 11.1286L27.7817 34.8062C27.7817 34.8456 27.7422 34.8456 27.7422 34.8851L27.6633 34.964C24.0722 39.3838 22.0991 44.9481 22.0991 50.6307C22.0991 64.3637 33.267 75.5316 47 75.5316C60.733 75.5316 71.9009 64.3637 71.9009 50.6307C71.9009 44.9481 69.9278 39.3838 66.3762 34.964ZM47 73.6374C34.3325 73.6374 24.0327 63.3376 24.0327 50.6701C24.0327 45.3427 25.8875 40.1336 29.2813 36.0295C29.3207 35.99 29.3207 35.9506 29.3602 35.9111L29.4391 35.8322L46.4081 14.2067L47.1184 13.299L47.8287 14.2067L64.7977 36.069L64.8371 36.1084C68.152 40.1731 70.0067 45.3427 70.0067 50.6307C69.9673 63.2982 59.6675 73.6374 47 73.6374Z" fill="black"/>
<path d="M63.6136 53.1561C63.5347 53.1561 63.4558 53.1167 63.3769 53.1167C62.9428 53.1167 62.5481 53.4324 62.4298 53.8664C61.2853 58.6809 57.8916 62.6666 53.3139 64.5608C53.0771 64.6397 52.8798 64.8371 52.8009 65.0738C52.6825 65.3106 52.6825 65.5868 52.8009 65.8236C52.9587 66.1788 53.3139 66.4156 53.7085 66.4156C53.8269 66.4156 53.9453 66.3761 54.0637 66.3366C59.2333 64.2057 63.0612 59.7069 64.324 54.3005C64.4818 53.7875 64.1661 53.2745 63.6136 53.1561Z" fill="black"/>
<path d="M63.8507 47.5525C64.4031 47.5525 64.8372 47.1184 64.8372 46.5659C64.8372 46.0134 64.4031 45.5793 63.8507 45.5793C63.2982 45.5793 62.8641 46.0134 62.8641 46.5659V46.6054C62.8641 47.1184 63.2982 47.5525 63.8507 47.5525Z" fill="black"/>
<path d="M1.14392 52.1301C1.18338 52.1301 1.22284 52.1301 1.22284 52.1301C1.77532 52.0907 2.13049 51.6171 2.09102 51.0647C0.0389657 28.9656 14.8375 8.36608 36.4235 3.15701C39.8568 2.3283 43.4084 1.89421 46.96 1.89421C53.0767 1.89421 58.9961 3.11755 64.5998 5.48531L66.2573 6.19563L64.6788 7.10327L63.2581 7.93199C62.7846 8.20823 62.6267 8.80017 62.9029 9.27372C63.0608 9.58942 63.416 9.74727 63.7317 9.74727C63.8895 9.74727 64.0868 9.70781 64.2052 9.62888L68.7434 7.02435C68.9802 6.90596 69.138 6.66919 69.1775 6.43241C69.2564 6.19563 69.217 5.9194 69.0986 5.68262L66.573 1.18388C66.4151 0.868178 66.06 0.710327 65.7443 0.710327C65.5864 0.710327 65.4286 0.74979 65.2707 0.828715C64.8761 1.06549 64.7182 1.49958 64.8366 1.93367L65.3496 3.67003L63.6527 3.03862C58.2858 1.02603 52.7216 0 46.9995 0C43.29 0 39.62 0.434089 36.0289 1.30227C24.9794 3.94626 15.2715 10.5365 8.68128 19.7708C2.20941 28.9261 -0.829212 40.1335 0.196816 51.262C0.236279 51.775 0.670368 52.1301 1.14392 52.1301Z" fill="black"/>
<path d="M92.619 39.9361C92.5796 39.9361 92.5401 39.9361 92.5006 39.9361C91.9876 40.015 91.593 40.4885 91.6719 41.041C94.6316 63.0612 80.7408 84.2132 59.352 90.3299C55.2874 91.4743 51.1044 92.0662 46.9608 92.0662C41.7912 92.0662 36.7005 91.1586 31.8071 89.3828L30.0708 88.7514L31.6098 87.7648L33.3856 86.6598C33.8197 86.3836 33.9776 85.7916 33.7013 85.3181C33.504 85.0419 33.2278 84.884 32.8726 84.884C32.6753 84.884 32.5174 84.9235 32.3596 85.0419L27.9398 87.8437C27.5057 88.1199 27.3478 88.7119 27.6241 89.1854L30.3865 93.5658C30.5838 93.842 30.86 93.9999 31.2152 93.9999C31.4125 93.9999 31.5703 93.9604 31.7282 93.842C32.0439 93.6447 32.2017 93.2896 32.1623 92.8949L32.0044 91.5137L33.3067 91.9084C37.766 93.2501 42.3436 93.9604 46.9213 93.9604C51.2622 93.9604 55.6031 93.329 59.8256 92.1451C70.7567 89.0276 80.1883 82.0822 86.3445 72.5717C92.4612 63.1401 95.0263 51.8538 93.5267 40.7648C93.5267 40.2912 93.0926 39.9361 92.619 39.9361Z" fill="black"/>
<path d="M23.6776 69.8093L14.1276 57.2602C13.9303 57.0235 13.6541 56.8656 13.3384 56.8656C13.0227 56.8656 12.7464 57.0235 12.5886 57.2602L2.99916 69.7304L2.9597 69.7699V69.8093L2.92023 69.8488C1.06549 72.2166 0 75.2552 0 78.3333C0 85.8312 5.95886 91.9084 13.3384 91.9084C20.7179 91.9084 26.6767 85.8312 26.6767 78.3333C26.6373 75.2552 25.5718 72.2166 23.6776 69.8093ZM13.3384 89.9748C7.06381 89.9748 1.97313 84.7657 1.97313 78.3333C1.97313 75.6104 2.88077 73.0058 4.57767 70.9143C4.61713 70.8748 4.61713 70.8748 4.61713 70.8354V70.7959L4.65659 70.7565L12.628 60.3778L13.3384 59.4307L14.0487 60.3778L22.0991 70.9143C22.0991 70.9143 22.0991 70.9538 22.1385 70.9538C23.796 73.0453 24.7036 75.6498 24.7036 78.3333C24.7036 84.7657 19.6129 89.9748 13.3384 89.9748Z" fill="black"/>
<path d="M19.4944 77.3862C18.9419 77.3862 18.5079 77.8203 18.5079 78.3727C18.5079 81.3324 16.1796 83.7002 13.2988 83.7002C12.7463 83.7002 12.3122 84.1343 12.3122 84.6868C12.3122 85.2392 12.7463 85.6733 13.2988 85.6733C17.2451 85.6733 20.4415 82.3979 20.4415 78.4122C20.481 77.8203 20.0469 77.3862 19.4944 77.3862Z" fill="black"/>
</svg>
