<svg width="18" height="14" viewBox="0 0 18 14" fill="none" xmlns="http://www.w3.org/2000/svg">
<path d="M16.5 0H1.5C0.6825 0.03 0.03 0.6825 0 1.5V12C0.03 12.8175 0.6825 13.47 1.5 13.5H16.5C17.3175 13.47 17.97 12.8175 18 12V1.5C17.97 0.6825 17.3175 0.03 16.5 0ZM16.5 12H1.5V1.5H16.5V12ZM10.5 10.5V9.5625C10.5 8.3175 7.995 7.6875 6.75 7.6875C5.505 7.6875 3 8.3175 3 9.5625V10.5H10.5ZM6.75 3C6.25272 3 5.77581 3.19754 5.42417 3.54917C5.07254 3.90081 4.875 4.37772 4.875 4.875C4.875 5.12123 4.9235 5.36505 5.01773 5.59253C5.11195 5.82002 5.25006 6.02672 5.42417 6.20083C5.77581 6.55246 6.25272 6.75 6.75 6.75C6.99623 6.75 7.24005 6.7015 7.46753 6.60727C7.69502 6.51305 7.90172 6.37494 8.07582 6.20083C8.24994 6.02672 8.38805 5.82002 8.48227 5.59253C8.5765 5.36505 8.625 5.12123 8.625 4.875C8.625 4.62877 8.5765 4.38495 8.48227 4.15747C8.38805 3.92998 8.24994 3.72328 8.07582 3.54917C7.90172 3.37506 7.69502 3.23695 7.46753 3.14273C7.24005 3.0485 6.99623 3 6.75 3ZM10.5 3V3.75H15V3H10.5ZM10.5 4.5V5.25H15V4.5H10.5ZM10.5 6V6.75H13.5V6H10.5Z" fill="#E77E83"/>
</svg>
