<svg width="17" height="17" viewBox="0 0 17 17" fill="none" xmlns="http://www.w3.org/2000/svg">
<path d="M16.422 7.735H8.6275V10.0555H14.161C13.8805 13.294 11.186 14.6795 8.636 14.6795C5.3805 14.6795 2.5245 12.1125 2.5245 8.5C2.5245 5.015 5.2445 2.3205 8.6445 2.3205C11.271 2.3205 12.8095 3.995 12.8095 3.995L14.4245 2.312C14.4245 2.312 12.3505 0 8.5595 0C3.7315 0 0 4.08 0 8.5C0 12.7925 3.5105 17 8.687 17C13.2345 17 16.5495 13.8805 16.5495 9.2735C16.5495 8.296 16.422 7.735 16.422 7.735Z" fill="#EA4335"/>
</svg>
