<svg width="95" height="96" viewBox="0 0 95 96" fill="none" xmlns="http://www.w3.org/2000/svg">
<path d="M30.577 29.5557C30.0662 29.5557 29.6917 29.9643 29.6917 30.441C29.6917 30.9177 30.1003 31.3263 30.577 31.3263H30.611C31.0877 31.3263 31.4963 30.9177 31.4963 30.441C31.4623 29.9643 31.0537 29.5557 30.577 29.5557Z" fill="black"/>
<path d="M94.1147 86.7939H92.31V15.7652H94.1147C94.5914 15.7652 95 15.3566 95 14.8799C95 14.4032 94.5914 13.9946 94.1147 13.9946H78.69V1.73656H81.6183C82.095 1.73656 82.5036 1.32796 82.5036 0.851255C82.5036 0.374552 82.095 0 81.6183 0H13.3817C12.905 0 12.4964 0.408602 12.4964 0.885305C12.4964 1.36201 12.905 1.77061 13.3817 1.77061H16.31V14.0627H0.885305C0.408602 14.0627 0 14.4713 0 14.948C0 15.4247 0.408602 15.8333 0.885305 15.8333H2.65591V86.862H0.885305C0.408602 86.862 0 87.2706 0 87.7473C0 88.224 0.408602 88.6326 0.885305 88.6326H16.31V93.3316H13.3817C12.905 93.3316 12.4964 93.7402 12.4964 94.2169C12.4964 94.6936 12.905 95.1021 13.3817 95.1021H81.6183C82.095 95.1021 82.5036 94.6936 82.5036 94.2169C82.5036 93.7402 82.095 93.3316 81.6183 93.3316H78.69V88.6326H94.1147C94.5914 88.6326 95 88.224 95 87.7473C95 87.2706 94.5914 86.7939 94.1147 86.7939ZM16.31 86.7939H4.39247V64.2867H9.2276C9.7043 64.2867 10.1129 63.8781 10.1129 63.4014C10.1129 62.9247 9.7043 62.5161 9.2276 62.5161H4.39247V40.009H9.2276C9.7043 40.009 10.1129 39.6004 10.1129 39.1237C10.1129 38.647 9.7043 38.2384 9.2276 38.2384H4.39247V15.7652H16.31V86.7939ZM48.3853 2.75806V1.73656H69.3943V20.4642C69.3943 22.0305 68.1344 23.2903 66.5681 23.2903C65.0018 23.2903 63.7419 22.0305 63.7419 20.4642V11.1004C63.7419 8.51254 61.6649 6.43548 59.0771 6.43548C56.4892 6.43548 54.4122 8.51254 54.4122 11.1004V14.6075C54.4122 16.276 53.0502 17.6039 51.4158 17.6039C49.7814 17.6039 48.4194 16.2419 48.4194 14.6075V2.75806H48.3853ZM76.9534 29.5556H36.9104C36.4337 29.5556 36.0251 29.9642 36.0251 30.4409C36.0251 30.9176 36.4337 31.3262 36.9104 31.3262H76.9534V63.6738H70.6882C70.2115 63.6738 69.8029 64.0824 69.8029 64.5591C69.8029 65.0358 70.2115 65.4445 70.6882 65.4445H76.9534V93.2634H18.0466V65.4445H58.0896C58.5663 65.4445 58.9749 65.0358 58.9749 64.5591C58.9749 64.0824 58.5663 63.6738 58.0896 63.6738H18.0466V31.3262H24.3118C24.7885 31.3262 25.1971 30.9176 25.1971 30.4409C25.1971 29.9642 24.7885 29.5556 24.3118 29.5556H18.0466V1.73656H46.6147V14.6075C46.6147 17.2294 48.7599 19.3746 51.3817 19.3746C54.0036 19.3746 56.1487 17.2294 56.1487 14.6075V11.1004C56.1487 9.5 57.4427 8.17204 59.0771 8.17204C60.7115 8.17204 62.0054 9.46595 62.0054 11.1004V20.4642C62.0054 22.9839 64.0484 25.0269 66.5681 25.0269C69.0878 25.0269 71.1308 22.9839 71.1308 20.4642V1.73656H76.9534V29.5556ZM90.5735 38.2724H84.819C84.3423 38.2724 83.9337 38.681 83.9337 39.1577C83.9337 39.6344 84.3423 40.043 84.819 40.043H90.5735V62.5502H84.819C84.3423 62.5502 83.9337 62.9588 83.9337 63.4355C83.9337 63.9122 84.3423 64.3208 84.819 64.3208H90.5735V86.828H78.69V15.7652H90.5735V38.2724Z" fill="black"/>
<path d="M64.4229 65.4444C64.9337 65.4444 65.3082 65.0358 65.3082 64.5591C65.3082 64.0824 64.8996 63.6738 64.4229 63.6738H64.3889C63.9122 63.6738 63.5036 64.0824 63.5036 64.5591C63.5376 65.0358 63.9462 65.4444 64.4229 65.4444Z" fill="black"/>
</svg>
