<svg width="98" height="107" viewBox="0 0 98 107" fill="none" xmlns="http://www.w3.org/2000/svg">
<path d="M92.2839 99.3168V83.8441C92.2839 83.358 91.8842 82.9125 91.3647 82.9125H89.1265L95.6012 67.1158C98.6786 59.4604 98.7586 51.0355 95.841 43.2992L84.6502 13.488C84.0907 11.9893 82.9316 10.7742 81.4928 10.1261C80.014 9.43752 78.2955 9.43752 76.8167 10.0046C76.7767 10.0046 76.7767 10.0451 76.7367 10.0451C76.6568 10.0856 76.5769 10.1261 76.4969 10.1666L75.8974 10.4501L75.4178 10.0046C68.3037 3.56439 59.0713 0 49.5192 0C39.9671 0 30.7347 3.56439 23.5806 10.0856L23.101 10.5311L22.5015 10.2476C22.4215 10.2071 22.3416 10.1666 22.2617 10.1261C22.2217 10.1261 22.2217 10.0856 22.1817 10.0856C20.663 9.47803 18.9844 9.51853 17.5056 10.1666C16.0268 10.8147 14.9077 12.0298 14.3082 13.5285L3.11745 43.3397C0.199852 51.0355 0.279787 59.501 3.39722 67.1563L9.87188 82.953H7.63372C7.15412 82.953 6.71448 83.358 6.71448 83.8846V99.3168C6.71448 99.8028 7.11415 100.248 7.63372 100.248H8.6329V106.04H10.4314V100.248H31.4541V106.04H33.2526V100.248H34.2518C34.7314 100.248 35.171 99.8433 35.171 99.3168V83.8441C35.171 83.358 34.7713 82.9125 34.2518 82.9125H33.2526V75.3787L34.6514 75.9457C39.3676 77.9305 44.3634 78.9431 49.4792 78.9431C54.595 78.9431 59.5909 77.9305 64.307 75.9457L65.7058 75.3787V82.9125H64.7067C64.2271 82.9125 63.7874 83.3175 63.7874 83.8441V99.2763C63.7874 99.7623 64.1871 100.208 64.7067 100.208H65.7058V106H67.5043V100.208H88.527V106H90.3255V100.208H91.3247C91.8842 100.208 92.2839 99.8028 92.2839 99.3168ZM75.1381 14.055C75.5777 13.0019 76.417 12.1918 77.4561 11.7868C78.4953 11.3817 79.6943 11.3817 80.7334 11.8678C81.7326 12.3133 82.532 13.1639 82.9316 14.217L94.1624 44.0283C96.9201 51.2786 96.8402 59.2579 93.9226 66.4677L87.1681 82.953H67.5043V77.0394C67.5043 70.5181 69.0231 63.9969 71.9007 58.1643C72.74 56.4226 73.2196 54.4784 73.2196 52.5342V37.5881C73.2196 35.4413 74.9782 33.6997 77.0565 33.6997H77.0964C78.895 33.6997 80.4137 34.9553 80.8134 36.7375L80.8533 36.859C80.8533 36.94 80.8533 37.021 80.8933 37.102C80.9333 37.264 80.9333 37.5071 80.9333 37.7096V59.744H82.7318V37.6286C82.7318 37.5881 82.7318 37.5071 82.7318 37.4666C82.6918 36.0894 82.4121 34.7123 81.8925 33.4161L75.1381 17.2954C74.7384 16.2423 74.7384 15.0676 75.1381 14.055ZM5.03586 66.4677C2.11827 59.2579 2.03834 51.2786 4.79606 43.9878L16.0268 14.1765C16.4265 13.1234 17.2258 12.2728 18.265 11.8273C19.3041 11.3817 20.5031 11.3412 21.5822 11.7463C22.6214 12.1513 23.4607 12.9614 23.9003 14.0145C24.3399 15.0271 24.3399 16.2018 23.9003 17.2144L17.1059 33.3756C16.5464 34.6718 16.2666 36.0489 16.2666 37.4666C16.2666 37.5071 16.2666 37.5476 16.2666 37.6286V59.7035H18.0651V37.6691C18.0651 37.4261 18.1051 37.2235 18.1051 37.0615C18.1051 36.9805 18.1451 36.8995 18.1451 36.8185L18.185 36.6565C18.6247 34.9148 20.1434 33.6997 21.9419 33.6997C22.2617 33.6997 22.5814 33.7402 22.8612 33.8212C24.5398 34.2262 25.7388 35.7654 25.7788 37.5476V52.5342C25.7788 54.4784 26.2184 56.4226 27.0977 58.1643C29.9753 63.9969 31.494 70.5181 31.494 77.0394V82.953H11.7903L5.03586 66.4677ZM33.3725 84.7757V98.3852H8.513V84.7757H33.3725ZM65.3861 73.556C60.4702 75.9457 54.9547 77.1609 49.4792 77.1609C44.0037 77.1609 38.5282 75.9052 33.5723 73.556L33.0528 73.313L33.0128 72.7459C32.4932 67.3588 31.0144 62.2147 28.6564 57.3542C27.937 55.8556 27.5373 54.1949 27.5373 52.5342V37.5881C27.5373 34.4287 25.0194 31.877 21.902 31.8365C21.7021 31.8365 21.5423 31.877 21.3424 31.877L19.5839 32.1605L25.539 17.984C26.1385 16.5258 26.1385 14.8246 25.539 13.3664C25.3791 13.0424 25.2192 12.7184 25.0194 12.3943L24.5398 11.6653L25.2192 11.0982C31.9337 5.10355 40.5666 1.8227 49.4792 1.8227C58.3919 1.8227 67.0647 5.10355 73.7792 11.0577L74.5386 11.7463C74.3387 12.0703 73.6193 13.0424 73.4594 13.3664C72.8599 14.8246 72.8599 16.5258 73.4594 17.984L79.3746 32.1605L77.616 31.9175C77.4162 31.877 77.2163 31.877 77.0165 31.877C73.939 31.877 71.3812 34.4692 71.3812 37.6286V52.5747C71.3812 54.2354 70.9815 55.8961 70.2621 57.3947C67.904 62.2147 66.4252 67.3993 65.9057 72.7864L65.8657 73.3535L65.3861 73.556ZM90.4854 98.3852H65.6259V84.7757H90.4854V98.3852Z" fill="black"/>
</svg>
