<svg width="17" height="15" viewBox="0 0 17 15" fill="none" xmlns="http://www.w3.org/2000/svg">
<path d="M9.4725 0C13.62 0 16.98 3.375 16.98 7.5C16.98 11.625 13.62 15 9.4725 15C6.84 15 4.5375 13.635 3.195 11.5725L4.38 10.635C5.4375 12.3525 7.32 13.5 9.48 13.5C11.0713 13.5 12.5974 12.8679 13.7226 11.7426C14.8479 10.6174 15.48 9.0913 15.48 7.5C15.48 5.9087 14.8479 4.38258 13.7226 3.25736C12.5974 2.13214 11.0713 1.5 9.48 1.5C6.42 1.5 3.9 3.795 3.5325 6.75H5.6025L2.7975 9.5475L0 6.75H2.0175C2.3925 2.9625 5.5875 0 9.4725 0ZM11.6925 6.18C12.0675 6.1875 12.375 6.4875 12.375 6.87V10.3275C12.375 10.7025 12.0675 11.0175 11.685 11.0175H7.5375C7.155 11.0175 6.8475 10.7025 6.8475 10.3275V6.87C6.8475 6.4875 7.155 6.1875 7.53 6.18V5.4225C7.53 4.275 8.4675 3.345 9.6075 3.345C10.755 3.345 11.6925 4.275 11.6925 5.4225V6.18ZM9.6075 4.395C9.045 4.395 8.58 4.8525 8.58 5.4225V6.18H10.6425V5.4225C10.6425 4.8525 10.1775 4.395 9.6075 4.395Z" fill="#E77E83"/>
</svg>
